<svg xmlns="http://www.w3.org/2000/svg" width="52.774" height="52.639" viewBox="0 0 52.774 52.639">
  <g id="Group_247" data-name="Group 247" transform="translate(-4477.223 -4252.481)">
    <g id="Group_246" data-name="Group 246">
      <path id="Path_125" data-name="Path 125" d="M4503.834,4252.527a26.3,26.3,0,0,1-.193,52.593c-15.279-.03-26.339-12.2-26.418-26.607C4477.148,4264.928,4489.383,4251.6,4503.834,4252.527ZM4490,4278.514v7.553c0,.162,0,.325.006.487.121,3.318,2.282,5.8,5.6,5.9q8.032.237,16.076,0a5.648,5.648,0,0,0,5.576-5.907c.057-5.2.076-10.4-.014-15.592a5.876,5.876,0,0,0-5.966-6.1q-7.671-.174-15.348,0c-3.587.084-5.849,2.527-5.915,6.1C4489.965,4273.478,4490,4276,4490,4278.514Z" fill="#b3b3b3"/>
      <path id="Path_126" data-name="Path 126" d="M4508.545,4278.733a4.907,4.907,0,0,1-4.824,5.031,5.088,5.088,0,1,1-.169-10.173A4.991,4.991,0,0,1,4508.545,4278.733Z" fill="#b3b3b3"/>
      <path id="Path_127" data-name="Path 127" d="M4515.365,4278.745c0-2.439.037-4.878-.008-7.315-.056-3.061-1.367-4.566-4.429-4.645q-7.31-.19-14.627,0c-2.834.072-4.334,1.707-4.365,4.5q-.084,7.436,0,14.873c.04,3.069,1.425,4.409,4.56,4.446q7.191.086,14.386,0c3.083-.043,4.4-1.418,4.468-4.545C4515.41,4283.622,4515.364,4281.183,4515.365,4278.745Zm-11.63,6.959a6.958,6.958,0,0,1-6.925-6.914c-.48-4.315,3.755-7.061,6.726-7.115a6.942,6.942,0,0,1,6.927,6.947C4510.485,4282.747,4507.727,4285.651,4503.735,4285.7Zm7.241-12.642a1.464,1.464,0,1,1,1.463-1.463A1.464,1.464,0,0,1,4510.976,4273.062Z" fill="#b3b3b3"/>
    </g>
  </g>
</svg>
