<svg xmlns="http://www.w3.org/2000/svg" width="52.745" height="52.696" viewBox="0 0 52.745 52.696">
  <path id="Path_122" data-name="Path 122" d="M4603.372,4252.484a26,26,0,0,1,26.308,26.236,26.361,26.361,0,0,1-26.115,26.422c-14.469.329-26.627-12.026-26.629-26.485C4576.933,4264.224,4589.292,4251.743,4603.372,4252.484Zm13.525,16.554a4.777,4.777,0,0,1-5.021-.332,5.753,5.753,0,0,0-8.407,4.186c-.348,2.6-1.532,2.849-3.617,2.329a19.944,19.944,0,0,1-8.134-4.236c-.464-.392-.848-1.189-1.6-.79-.67.355-.4,1.156-.484,1.777-.281,2.006.869,3.508,2.1,5.256-2.832-.272-2.224,1.025-1.418,2.347a7.328,7.328,0,0,0,2.452,2.329c.432.272,1.268.636.437,1.218-1.489,1.042-.261,1.584.3,2.257.858,1.035,2.318,1.042,3.434,1.823-1.656,2.277-4.467,2.045-6.911,3.424a22.054,22.054,0,0,0,3.374,1.186c11.738,1.9,19.942-3.948,21.884-15,.325-1.851.554-3.572,2.232-4.867C4614.28,4271.326,4617.214,4270.207,4616.9,4269.038Z" transform="translate(-4576.936 -4252.453)" fill="#b3b3b3"/>
</svg>
