<svg xmlns="http://www.w3.org/2000/svg" width="52.708" height="52.966" viewBox="0 0 52.708 52.966">
  <g id="Group_245" data-name="Group 245" transform="translate(-4377.2 -4252.318)">
    <g id="Group_244" data-name="Group 244">
      <path id="Path_123" data-name="Path 123" d="M4429.908,4278.686a26.355,26.355,0,1,1-52.708.111c.1-14.2,10.791-26.47,26.575-26.479A26.1,26.1,0,0,1,4429.908,4278.686Zm-26.182-10.978c-3.56.187-7.122-.083-10.693.4-2.408.323-3.776,1.438-4.141,3.7a44.579,44.579,0,0,0,0,14.282c.4,2.467,2.042,3.4,4.478,3.6a124.274,124.274,0,0,0,20.4-.017c2.848-.242,4.51-1.46,4.722-4.241a79.115,79.115,0,0,0-.025-13.134,4.355,4.355,0,0,0-4.054-4.156C4410.856,4267.542,4407.288,4267.9,4403.726,4267.708Z" fill="#b3b3b3"/>
      <path id="Path_124" data-name="Path 124" d="M4400.108,4278.579c0-4.819.025-4.866,4.311-2.6,1.372.726,3.768.987,3.719,2.574-.043,1.407-2.348,1.906-3.75,2.631C4399.816,4283.552,4400.1,4283.771,4400.108,4278.579Z" fill="#b3b3b3"/>
    </g>
  </g>
</svg>
